<svg xmlns="http://www.w3.org/2000/svg" viewBox="0 0 24 24" width="32" height="32">
  <defs>
    <linearGradient id="shieldGrad" x1="0%" y1="0%" x2="100%" y2="100%">
      <stop offset="0%" stop-color="#ff5c1a" />
      <stop offset="50%" stop-color="#f97316" />
      <stop offset="100%" stop-color="#f59e0b" />
    </linearGradient>
  </defs>
  <rect width="24" height="24" rx="6" fill="url(#shieldGrad)" />
  <path fill="#ffffff" fill-rule="evenodd" d="M12.516 2.17a.75.75 0 0 0-1.032 0 11.209 11.209 0 0 1-7.877 3.08.75.75 0 0 0-.722.515A12.74 12.74 0 0 0 2.25 9.75c0 5.942 4.064 10.933 9.563 12.348a.749.749 0 0 0 .374 0c5.499-1.415 9.563-6.406 9.563-12.348 0-1.39-.223-2.73-.635-3.985a.75.75 0 0 0-.722-.516l-.143.001c-2.996 0-5.717-1.17-7.734-3.08ZM12 8.25a.75.75 0 0 1 .75.75v3.75a.75.75 0 0 1-1.5 0V9a.75.75 0 0 1 .75-.75Zm0 6a.75.75 0 1 0 0 1.5.75.75 0 0 0 0-1.5Z" clip-rule="evenodd" transform="scale(0.7) translate(5.1, 5.1)" />
</svg>
